<svg width="512" height="512" viewBox="0 0 512 512" fill="none" xmlns="http://www.w3.org/2000/svg">
<circle cx="256" cy="256" r="215" fill="#3B9EBD"/>
<path d="M202.5 272C202.5 272 161.5 299 132.5 316C127 319.224 121 324.5 121 334.5C121 348.754 121 357 121 371C121 379.5 130 386.5 137.5 391C138 396 140.579 399.523 145 402.5C169.5 419 175.5 423 198 438.5C202.355 441.5 209.5 441.5 216 440.5C229 445 242.059 445 253.5 437.5C298.5 408 318 395 359 368C369 368 374 360.978 379 356C384 351.022 387 348 387 339.5C394 334.5 398.886 332.164 407 327C412.5 323.5 416 319 416 309.5C416 302 416 298 416 290C416 284 409 278.406 404.5 275.5C380.5 260 345 239 345 239" stroke="#126495" stroke-width="10"/>
<path d="M370.5 337C373.701 333.159 372.5 325 372.5 325V296.5L318.5 261L295.5 244.5L279 265L350 309.5L350.5 349.5C350.5 349.5 358.5 349 361.5 346.5C366.016 342.737 367.299 340.841 370.5 337Z" fill="#BCEFFF"/>
<path d="M372.5 325C372.5 325 386.5 317.5 396 310.5C399.5 307.921 402 306 402 299.5C402 294 401.893 290.016 402 286C402.071 283.35 401.651 281.388 400.5 279C390.5 285 372.5 296.5 372.5 296.5V325Z" fill="#697D84"/>
<path d="M400.5 279C378 263.5 344 243.5 344 243.5L318.5 261L372.5 296.5C372.5 296.5 390.5 285 400.5 279Z" fill="#697D84"/>
<path d="M350.5 349.5L350 309.5L255 373.5V412.5L350.5 349.5Z" fill="#697D84"/>
<path d="M236 424.5C245.5 420.5 255 412.5 255 412.5V373.5C255 373.5 244 383 236 389V424.5Z" fill="#697D84"/>
<path d="M211 421C218.5 427.5 227.5 426.5 236 424.5V389C226 391 221 391 211 387V421Z" fill="#697D84"/>
<path d="M195 419.5C200.5 423.281 205.5 423.5 211 421V387C204.5 387 205.532 387.845 195 381.5C180.83 372.964 153.867 355.885 145 348C141.643 345.015 146.5 344 142.5 341V377C142.5 377 142.09 382.3 145 384.5C165.5 400 173.311 404.589 195 419.5Z" fill="#697D84"/>
<path d="M126.5 361C126.5 368.5 142.5 377 142.5 377V341C130 335 126.5 331 126.5 323V361Z" fill="#697D84"/>
<path d="M150.5 305C150.5 305 126.887 317 126.5 323C126.5 331 130 335 142.5 341C146.5 344 141.643 345.015 145 348C153.867 355.885 180.83 372.964 195 381.5C205.532 387.845 204.5 387 211 387C221 391 226 391 236 389C244 383 255 373.5 255 373.5L150.5 305Z" fill="#BCEFFF"/>
<path d="M318.5 261L344 243.5L321.5 227L295.5 244.5L318.5 261Z" fill="#697D84"/>
<path d="M225.5 257L150.5 305L255 373.5L350 309.5L279 265L247 242L225.5 257Z" fill="#3B9EBD"/>
<path d="M344 243.5C344 243.5 378 263.5 400.5 279M344 243.5L318.5 261M344 243.5L321.5 227L295.5 244.5M400.5 279C390.5 285 372.5 296.5 372.5 296.5M400.5 279C401.651 281.388 402.071 283.35 402 286C401.893 290.016 402 294 402 299.5C402 306 399.5 307.921 396 310.5C386.5 317.5 372.5 325 372.5 325M372.5 325C372.5 325 373.701 333.159 370.5 337C367.299 340.841 366.016 342.737 361.5 346.5C358.5 349 350.5 349.5 350.5 349.5M372.5 325V296.5M350.5 349.5L350 309.5M350.5 349.5L255 412.5M236 424.5C227.5 426.5 218.5 427.5 211 421M236 424.5C245.5 420.5 255 412.5 255 412.5M236 424.5C236 413.565 236 399.935 236 389M236 424.5V389M211 421C205.5 423.5 200.5 423.281 195 419.5C173.311 404.589 165.5 400 145 384.5C142.09 382.3 142.5 377 142.5 377M211 421C211 408.894 211 401.5 211 387M211 421V387M142.5 377C142.5 377 126.5 368.5 126.5 361M142.5 377V341M126.5 361C126.5 343.5 126.5 338.5 126.5 323M126.5 361V323M126.5 323C126.887 317 150.5 305 150.5 305M126.5 323C126.5 331 130 335 142.5 341M150.5 305L225.5 257L247 242L279 265M150.5 305L255 373.5M318.5 261L295.5 244.5M318.5 261L372.5 296.5M295.5 244.5L279 265M372.5 296.5C372.5 296.5 371.746 301.254 370 303C366.5 306.5 364 308 358.5 311C355.541 312.614 350 309.5 350 309.5M350 309.5L279 265M350 309.5L255 373.5M255 412.5V373.5M255 373.5C255 373.5 244 383 236 389M236 389C226 391 221 391 211 387M211 387C204.5 387 205.532 387.845 195 381.5C180.83 372.964 153.867 355.885 145 348C141.643 345.015 146.5 344 142.5 341" stroke="#00072C" stroke-width="10"/>
<path d="M124 194C166.5 230.5 198 263 198 263C198 263 215.5 252.5 225 246.5C225 260.5 237.442 275.381 254.5 276C273.624 276.693 290 257.5 294.5 243.5C300 249 308.5 251.5 308.5 251.5L340.5 230C340.5 230 376.846 217.327 399.5 206C414.5 198.5 415.514 174.166 408.5 161.5C375 101 327.46 74.0724 255 73C191.339 72.0578 159 96.5001 116.5 140C95 162.006 105.37 178 124 194Z" fill="#B2E2F1"/>
<path d="M198 263C198 263 166.5 230.5 124 194C105.37 178 95 162.006 116.5 140C159 96.5001 191.339 72.0578 255 73C327.46 74.0724 375 101 408.5 161.5C415.514 174.166 414.5 198.5 399.5 206C376.846 217.327 340.5 230 340.5 230M198 263C198 263 157 290 128 307C122.5 310.224 116.5 315.5 116.5 325.5C116.5 339.754 116.5 348 116.5 362C116.5 370.5 125.5 377.5 133 382C133.5 387 136.079 390.523 140.5 393.5C165 410 171 414 193.5 429.5C197.855 432.5 205 432.5 211.5 431.5C224.5 436 237.56 436 249 428.5C294 399 313.5 386 354.5 359C364.5 359 369.5 351.978 374.5 347C379.5 342.022 382.5 339 382.5 330.5C389.5 325.5 394.386 323.163 402.5 318C408 314.5 411.5 310 411.5 300.5C411.5 293 411.5 289 411.5 281C411.5 275 404.5 269.406 400 266.5C376 251 340.5 230 340.5 230M198 263C198 263 215.5 252.5 225 246.5C225 260.5 237.442 275.381 254.5 276C273.624 276.693 290 257.5 294.5 243.5C300 249 308.5 251.5 308.5 251.5L340.5 230" stroke="white" stroke-width="10"/>
<path d="M331.5 192C286.5 125.5 207 142 175 188" stroke="#00072C" stroke-width="24" stroke-linecap="round"/>
<path d="M252.5 144C235.5 142 214.5 148.5 201 163.5" stroke="white" stroke-width="4" stroke-linecap="round"/>
<circle cx="259" cy="145" r="3" fill="white"/>
<path d="M379.5 179.5C340.5 84 188 69.5 139 164" stroke="#00072C" stroke-width="24" stroke-linecap="round"/>
<path d="M234.5 101C189 105.5 157 130.5 139 164" stroke="white" stroke-width="10" stroke-linecap="round"/>
<path d="M298 217.5C273.5 181.5 231 186 211.5 214" stroke="#00072C" stroke-width="24" stroke-linecap="round"/>
<path d="M276 197C248.5 183 223.5 197 211.5 214" stroke="white" stroke-width="6" stroke-linecap="round"/>
<circle cx="255" cy="247" r="24" fill="#00072C"/>
<path d="M239.61 249.589C238.356 249.832 237.127 249.013 237.041 247.738C236.903 245.667 237.113 243.58 237.669 241.569C238.432 238.811 239.823 236.269 241.735 234.14C243.646 232.012 246.024 230.355 248.684 229.302C250.624 228.532 252.676 228.099 254.75 228.015C256.027 227.963 256.974 229.098 256.866 230.37V230.37C256.758 231.643 255.634 232.567 254.361 232.672C253.002 232.784 251.663 233.096 250.388 233.601C248.393 234.392 246.609 235.634 245.176 237.23C243.743 238.827 242.699 240.734 242.127 242.801C241.761 244.124 241.595 245.488 241.629 246.851C241.662 248.128 240.864 249.345 239.61 249.589V249.589Z" fill="white"/>
<mask id="path-16-inside-1_24_4" fill="white">
<path d="M471 256C471 374.741 374.741 471 256 471C137.259 471 41 374.741 41 256C41 137.259 137.259 41 256 41C374.741 41 471 137.259 471 256ZM62.5 256C62.5 362.867 149.133 449.5 256 449.5C362.867 449.5 449.5 362.867 449.5 256C449.5 149.133 362.867 62.5 256 62.5C149.133 62.5 62.5 149.133 62.5 256Z"/>
</mask>
<path d="M471 256C471 374.741 374.741 471 256 471C137.259 471 41 374.741 41 256C41 137.259 137.259 41 256 41C374.741 41 471 137.259 471 256ZM62.5 256C62.5 362.867 149.133 449.5 256 449.5C362.867 449.5 449.5 362.867 449.5 256C449.5 149.133 362.867 62.5 256 62.5C149.133 62.5 62.5 149.133 62.5 256Z" stroke="#00072C" stroke-width="40" mask="url(#path-16-inside-1_24_4)"/>
</svg>
